<svg width="17" height="39" viewBox="0 0 17 39" fill="none" xmlns="http://www.w3.org/2000/svg">
<path d="M14.9801 11.7273V15.2784H0.278409V11.7273H14.9801ZM4.68182 39V7.96307C4.68182 6.40057 5.04877 5.09848 5.78267 4.05682C6.51657 3.01515 7.46946 2.2339 8.64134 1.71307C9.81321 1.19223 11.0502 0.931816 12.3523 0.931816C13.3821 0.931816 14.2225 1.01468 14.8736 1.1804C15.5246 1.34612 16.0099 1.5 16.3295 1.64204L15.1222 5.2642C14.9091 5.19318 14.6132 5.1044 14.2344 4.99787C13.8674 4.89133 13.3821 4.83807 12.7784 4.83807C11.3935 4.83807 10.3932 5.18726 9.7777 5.88565C9.17401 6.58404 8.87216 7.60795 8.87216 8.95738V39H4.68182Z" fill="#0062BD"/>
</svg>
